# AST/ASF file generated using VICON BodyLanguage
# -----------------------------------------------
:version 1.10
:name VICON
:units
  mass 1.0
  length 0.45
  angle deg
:documentation
   .ast/.asf automatically generated from VICON data using
   VICON BodyBuilder and BodyLanguage model FoxedUp or BRILLIANT.MOD
:root
   order TX TY TZ RX RY RZ
   axis XYZ
   position 0 0 0  
   orientation 0 0 0 
:bonedata
  begin
     id 1 
     name lhipjoint
     direction 0.543289 -0.788407 0.288535 
     length 2.57127 
     axis 0 0 0  XYZ
  end
  begin
     id 2 
     name lfemur
     direction 0.34202 -0.939693 0  
     length 8.47298  
     axis 0 0 20  XYZ
    dof rx ry rz
    limits (-160.0 20.0)
           (-70.0 70.0)
           (-60.0 70.0)
  end
  begin
     id 3 
     name ltibia
     direction 0.34202 -0.939693 0   
     length 8.13367   
     axis 0 0 20   XYZ
    dof rx
    limits (-10.0 170.0)
  end
  begin
     id 4 
     name lfoot
     direction 0.114037 -0.313314 0.942778   
     length 2.67113   
     axis -90 7.62852e-016 20   XYZ
    dof rx rz
    limits (-45.0 90.0)
           (-70.0 20.0)
  end
  begin
     id 5 
     name ltoes
     direction 1.536e-011 -4.21847e-011 1   
     length 1.32217   
     axis -90 7.62852e-016 20   XYZ
    dof rx
    limits (-90.0 20.0)
  end
  begin
     id 6 
     name rhipjoint
     direction -0.571293 -0.770752 0.282074   
     length 2.63017  
     axis 0 0 0  XYZ 
  end
  begin
     id 7 
     name rfemur
     direction -0.34202 -0.939693 0   
     length 8.60885   
     axis 0 0 -20   XYZ
    dof rx ry rz
    limits (-160.0 20.0)
           (-70.0 70.0)
           (-70.0 60.0)
  end
  begin
     id 8 
     name rtibia
     direction -0.34202 -0.939693 0   
     length 8.07673   
     axis 0 0 -20   XYZ
    dof rx
    limits (-10.0 170.0)
 end
 begin
     id 9 
     name rfoot
     direction -0.121336 -0.333368 0.934956   
     length 2.81602  
     axis -90 -7.62852e-016 -20   XYZ
    dof rx rz
    limits (-45.0 90.0)
           (-20.0 70.0)
  end
  begin
     id 10 
     name rtoes
     direction -1.53491e-011 -4.21808e-011 1   
     length 1.38905   
     axis -90 -7.62852e-016 -20   XYZ
    dof rx
    limits (-90.0 20.0)
  end
  begin
     id 11 
     name lowerback
     direction 0.0136776 0.999869 -0.00861835   
     length 2.14087   
     axis 0 0 0   XYZ
    dof rx ry rz
    limits (-20.0 45.0)
           (-30.0 30.0)
           (-30.0 30.0)
  end
  begin
     id 12 
     name upperback
     direction -0.00789158 0.999804 0.0181308   
     length 2.14151   
     axis 0 0 0   XYZ
    dof rx ry rz
    limits (-20.0 45.0)
           (-30.0 30.0)
           (-30.0 30.0)
  end
  begin
     id 13 
     name thorax
     direction -0.0135231 0.999666 0.0220247   
     length 2.13644   
     axis 0 0 0   XYZ
    dof rx ry rz
    limits (-20.0 45.0)
           (-30.0 30.0)
           (-30.0 30.0)
  end
  begin
     id 14 
     name lowerneck
     direction -0.0392259 0.997317 0.0618018   
     length 1.65045   
     axis 0 0 0   XYZ
    dof rx ry rz
    limits (-20.0 45.0)
           (-30.0 30.0)
           (-30.0 30.0)
  end
  begin
     id 15 
     name upperneck
     direction 0.0765547 0.994276 -0.0745319   
     length 1.66045   
     axis 0 0 0   XYZ
    dof rx ry rz
    limits (-20.0 45.0)
           (-30.0 30.0)
           (-30.0 30.0)
  end
  begin
     id 16
     name head
     direction 0.0241564 0.999031 -0.036785  
     length 1.66594  
     axis 0 0 0   XYZ
    dof rx ry rz
    limits (-20.0 45.0)
           (-30.0 30.0)
           (-30.0 30.0)
  end
  begin
     id 17 
     name lclavicle
     direction 0.967398 0.249018 0.0461573  
     length 3.75176  
     axis 0 0 0   XYZ
    dof ry rz
    limits (-20.0 10.0)
           (0.0 20.0)
  end
  begin
     id 18 
     name lhumerus
     direction 1 -4.48963e-011 -3.05005e-027   
     length 5.93342   
     axis 180 -30 -90   XYZ
    dof rx ry rz
    limits (-60.0 90.0)
           (-90.0 90.0)
           (-90.0 90.0)
  end
  begin
     id 19
     name lradius
     direction 1 -4.48957e-011 1.07006e-026   
     length 3.94763   
     axis 180 -30 -90   XYZ
    dof rx
    limits (-10.0 170.0)
  end
  begin
     id 20
     name lwrist
     direction 1 -4.48978e-011 1.92422e-026   
     length 1.97382   
     axis -1.18182e-014 90 90   XYZ
    dof ry
    limits (-180.0 0.0)
 end
  begin
     id 21 
     name lhand
     direction 1 -4.48931e-011 3.84844e-026   
     length 0.560187   
     axis -2.45563e-014 90 90   XYZ
    dof rx rz
    limits (-90.0 90.0)
           (-45.0 45.0)
  end
  begin
     id 22 
     name lfingers
     direction 1 -4.48952e-011 7.69687e-026   
     length 0.451637   
     axis -4.91126e-014 90 90   XYZ
    dof rx
    limits (0.0 90.0)
  end
  begin
     id 23
     name lthumb
     direction 0.707107 -6.34901e-011 0.707107   
     length 0.648463   
     axis -90 45 2.85299e-015   XYZ
    dof rx rz
    limits (-45.0 45.0)
           (-45.0 45.0)
  end
  begin
     id 24 
     name rclavicle
     direction -0.965946 0.258716 0.00371831   
     length 3.63667  
     axis 0 0 0   XYZ 
    dof ry rz
    limits (-10.0 20.0)
           (-20.0 0.0)
  end
  begin
     id 25 
     name rhumerus
     direction -1 -4.48966e-011 -1.78361e-028  
     length 6.28647   
     axis 180 30 90   XYZ
    dof rx ry rz
    limits (-90.0 60.0)
           (-90.0 90.0)
           (-90.0 90.0)
  end
  begin
     id 26 
     name rradius
     direction -1 -4.48961e-011 1.05248e-026   
     length 3.81645   
     axis 180 30 90   XYZ
    dof rx
    limits (-10.0 170.0)
  end
  begin
     id 27 
     name rwrist
     direction -1 -4.48979e-011 1.92422e-026   
     length 1.90822   
     axis -1.18182e-014 -90 -90   XYZ
    dof ry
    limits (-180.0 0.0)
  end
  begin
     id 28
     name rhand
     direction -1 -4.48937e-011 3.84844e-026   
     length 0.646185   
     axis -2.45563e-014 -90 -90   XYZ
    dof rx rz
    limits (-90.0 90.0)
           (-45.0 45.0)
  end
  begin
     id 29
     name rfingers
     direction -1 -4.48953e-011 7.69687e-026   
     length 0.520971   
     axis -4.91126e-014 -90 -90   XYZ
    dof rx
    limits (0.0 90.0)
  end
  begin
     id 30
     name rthumb
     direction -0.707107 -6.3494e-011 0.707107   
     length 0.748013   
     axis -90 -45 -2.85299e-015   XYZ
    dof rx rz
    limits (-45.0 45.0)
           (-45.0 45.0)
  end
:hierarchy
  begin
    root lhipjoint rhipjoint lowerback
    lhipjoint lfemur
    lfemur ltibia
    ltibia lfoot
    lfoot ltoes
    rhipjoint rfemur
    rfemur rtibia
    rtibia rfoot
    rfoot rtoes
    lowerback upperback
    upperback thorax
    thorax lowerneck lclavicle rclavicle
    lowerneck upperneck
    upperneck head
    lclavicle lhumerus
    lhumerus lradius
    lradius lwrist
    lwrist lhand lthumb
    lhand lfingers
    rclavicle rhumerus
    rhumerus rradius
    rradius rwrist
    rwrist rhand rthumb
    rhand rfingers
  end

#!OML:ASF H:\HAZMAT1\Patient Classification 1\Patient 3\Session 1\dancer.ASF
:FULLY-SPECIFIED
:DEGREES
15
upperback -2.762220 0.093537 -1.877540
rfoot 5.450940 -2.144480
lradius 18.442600
lthumb 11.864800 50.392502
rradius 26.564100
lwrist -20.648600
rhand -18.511900 -17.122900
rhumerus -35.622299 -4.756010 -83.556000
lowerneck -6.458640 -0.903598 0.646059
lhand -14.274100 20.748600
ltibia 38.607700
head 2.794750 -0.616109 -0.123624
rwrist 16.289600
lfingers 7.125020
rtoes 7.173690
lowerback -2.630110 0.116149 3.001030
rfingers 7.125020
lclavicle -0.000000 0.000000
upperneck 5.258420 -1.276660 0.138176
rfemur -4.168200 -3.674670 15.765200
thorax -1.356610 -0.022870 -3.615280
rclavicle -0.000000 0.000000
rtibia 57.080200
lfoot -12.830800 13.076800
lhumerus -56.211899 19.714600 51.964901
rthumb 7.776250 -46.959900
root 0.274646 19.031900 17.264900 7.393680 -0.741141 0.475761
ltoes 13.499800
lfemur -32.665501 -19.379801 -18.220301
16
upperback -2.704610 1.380280 -1.497830
rfoot -28.004299 -13.343500
lradius 17.367901
lthumb 12.764800 50.996101
rradius 39.493801
lwrist -21.886801
rhand -20.468399 -18.496099
rhumerus -27.368200 2.711530 -87.381798
lowerneck -5.686710 -0.620119 0.857971
lhand -13.340600 21.406300
ltibia 36.153198
head 2.019480 -0.438534 -0.611288
rwrist 9.988220
lfingers 7.125020
rtoes -17.113100
lowerback -2.576240 1.096640 4.832640
rfingers 7.125020
lclavicle 0.000000 0.000000
upperneck 3.371640 -0.828487 -1.382670
rfemur 3.617260 9.084050 22.489000
thorax -1.191790 0.600375 -4.235170
rclavicle 0.000000 0.000000
rtibia 29.451200
lfoot -9.713070 20.690701
lhumerus -60.116001 22.744400 45.489399
rthumb 5.887590 -48.394299
root -0.047991 18.583799 14.080100 10.358900 -3.439900 -0.491318
ltoes 11.105200
lfemur -47.264999 -23.313200 -6.703160
17
upperback -1.972860 0.474179 -0.115960
rfoot -32.379398 -20.601900
lradius 16.521999
lthumb 12.264600 50.792198
rradius 32.114300
lwrist -27.377501
rhand -19.448700 -18.328899
rhumerus -25.602600 2.578450 -87.577698
lowerneck -2.901470 0.313309 2.037480
lhand -13.859400 21.171900
ltibia 34.747002
head 1.140850 0.180252 -1.163460
rwrist 13.702300
lfingers 7.125020
rtoes 3.781650
lowerback -1.900720 0.431668 9.156250
rfingers 7.125020
lclavicle -0.000000 0.000000
upperneck 2.075320 0.408348 -2.667740
rfemur -8.392960 10.246800 28.310200
thorax -0.911655 0.127362 -5.254470
rclavicle -0.000000 0.000000
rtibia 31.623199
lfoot -26.251101 19.288799
lhumerus -57.799301 25.221800 44.522598
rthumb 6.872070 -48.197300
root -0.413866 18.668200 10.648200 10.514700 -3.285020 -4.143530
ltoes 5.894930
lfemur -48.574100 -23.751301 0.836422
18
upperback -2.249940 -1.715530 -0.270463
rfoot -29.582600 -22.377399
lradius 20.340401
lthumb 10.178300 50.072399
rradius 24.267401
lwrist -19.867901
rhand -18.927500 -18.440201
rhumerus -42.655701 -7.111150 -79.539001
lowerneck -3.334700 0.327399 0.952350
lhand -16.022699 20.338600
ltibia 54.414200
head 1.286430 0.202695 -0.518609
rwrist 17.422899
lfingers 7.125020
rtoes 9.664530
lowerback -0.784454 -1.308960 9.024190
rfingers 7.125020
lclavicle -0.000000 0.000000
upperneck 2.347980 0.429568 -1.192100
rfemur -20.986099 9.894610 26.960600
thorax -2.179380 -1.032520 -5.320600
rclavicle -0.000000 0.000000
rtibia 40.123199
lfoot -19.791100 3.521070
lhumerus -41.216599 19.536400 59.987301
rthumb 7.375090 -48.291698
root -0.431010 18.809999 7.819260 9.134340 1.161300 -3.349610
ltoes 5.176870
lfemur -34.647900 -11.311200 -11.080000
